<mxfile host="app.diagrams.net" modified="2023-10-22T14:41:22.630Z" agent="Mozilla/5.0 (Windows NT 10.0; Win64; x64) AppleWebKit/537.36 (KHTML, like Gecko) Chrome/118.0.0.0 Safari/537.36" etag="p9t9e3Vm8sA_yuCv8w1t" version="22.0.6" type="github">
  <diagram name="Page-1" id="ZUct01swonV5XYAcVZnX">
    <mxGraphModel dx="1050" dy="530" grid="1" gridSize="10" guides="1" tooltips="1" connect="1" arrows="1" fold="1" page="1" pageScale="1" pageWidth="850" pageHeight="1100" math="0" shadow="0">
      <root>
        <mxCell id="0" />
        <mxCell id="1" parent="0" />
        <mxCell id="0QHYKSuhrzb7lmkxANA4-1" value="Government" style="rounded=1;whiteSpace=wrap;html=1;fillColor=#dae8fc;strokeColor=#6c8ebf;" vertex="1" parent="1">
          <mxGeometry x="360" y="290" width="120" height="60" as="geometry" />
        </mxCell>
        <mxCell id="0QHYKSuhrzb7lmkxANA4-10" style="edgeStyle=orthogonalEdgeStyle;rounded=0;orthogonalLoop=1;jettySize=auto;html=1;entryX=1;entryY=0.5;entryDx=0;entryDy=0;" edge="1" parent="1" source="0QHYKSuhrzb7lmkxANA4-2" target="0QHYKSuhrzb7lmkxANA4-4">
          <mxGeometry relative="1" as="geometry" />
        </mxCell>
        <mxCell id="0QHYKSuhrzb7lmkxANA4-24" value="Crash: Credit, Loans" style="edgeLabel;html=1;align=center;verticalAlign=middle;resizable=0;points=[];" vertex="1" connectable="0" parent="0QHYKSuhrzb7lmkxANA4-10">
          <mxGeometry x="0.104" y="-1" relative="1" as="geometry">
            <mxPoint as="offset" />
          </mxGeometry>
        </mxCell>
        <mxCell id="0QHYKSuhrzb7lmkxANA4-2" value="Credit Market" style="rounded=1;whiteSpace=wrap;html=1;fillColor=#fff2cc;strokeColor=#d6b656;" vertex="1" parent="1">
          <mxGeometry x="540" y="480" width="120" height="60" as="geometry" />
        </mxCell>
        <mxCell id="0QHYKSuhrzb7lmkxANA4-8" style="edgeStyle=orthogonalEdgeStyle;rounded=0;orthogonalLoop=1;jettySize=auto;html=1;entryX=0.5;entryY=1;entryDx=0;entryDy=0;" edge="1" parent="1" source="0QHYKSuhrzb7lmkxANA4-3" target="0QHYKSuhrzb7lmkxANA4-4">
          <mxGeometry relative="1" as="geometry" />
        </mxCell>
        <mxCell id="0QHYKSuhrzb7lmkxANA4-25" value="Crash: Housing" style="edgeLabel;html=1;align=center;verticalAlign=middle;resizable=0;points=[];" vertex="1" connectable="0" parent="0QHYKSuhrzb7lmkxANA4-8">
          <mxGeometry x="0.312" relative="1" as="geometry">
            <mxPoint as="offset" />
          </mxGeometry>
        </mxCell>
        <mxCell id="0QHYKSuhrzb7lmkxANA4-3" value="Housing Market" style="rounded=1;whiteSpace=wrap;html=1;fillColor=#fff2cc;strokeColor=#d6b656;" vertex="1" parent="1">
          <mxGeometry x="360" y="480" width="120" height="60" as="geometry" />
        </mxCell>
        <mxCell id="0QHYKSuhrzb7lmkxANA4-7" style="edgeStyle=orthogonalEdgeStyle;rounded=0;orthogonalLoop=1;jettySize=auto;html=1;entryX=0.5;entryY=1;entryDx=0;entryDy=0;dashed=1;" edge="1" parent="1" source="0QHYKSuhrzb7lmkxANA4-4" target="0QHYKSuhrzb7lmkxANA4-1">
          <mxGeometry relative="1" as="geometry" />
        </mxCell>
        <mxCell id="0QHYKSuhrzb7lmkxANA4-27" value="Crash spending" style="edgeLabel;html=1;align=center;verticalAlign=middle;resizable=0;points=[];" vertex="1" connectable="0" parent="0QHYKSuhrzb7lmkxANA4-7">
          <mxGeometry x="0.04" y="-3" relative="1" as="geometry">
            <mxPoint x="-3" y="1" as="offset" />
          </mxGeometry>
        </mxCell>
        <mxCell id="0QHYKSuhrzb7lmkxANA4-4" value="Banks" style="rounded=1;whiteSpace=wrap;html=1;fillColor=#d5e8d4;strokeColor=#82b366;" vertex="1" parent="1">
          <mxGeometry x="360" y="390" width="120" height="60" as="geometry" />
        </mxCell>
        <mxCell id="0QHYKSuhrzb7lmkxANA4-9" style="edgeStyle=orthogonalEdgeStyle;rounded=0;orthogonalLoop=1;jettySize=auto;html=1;entryX=0;entryY=0.5;entryDx=0;entryDy=0;" edge="1" parent="1" source="0QHYKSuhrzb7lmkxANA4-5" target="0QHYKSuhrzb7lmkxANA4-4">
          <mxGeometry relative="1" as="geometry" />
        </mxCell>
        <mxCell id="0QHYKSuhrzb7lmkxANA4-26" value="Crash: Export" style="edgeLabel;html=1;align=center;verticalAlign=middle;resizable=0;points=[];" vertex="1" connectable="0" parent="0QHYKSuhrzb7lmkxANA4-9">
          <mxGeometry x="0.2829" y="1" relative="1" as="geometry">
            <mxPoint x="-4" y="25" as="offset" />
          </mxGeometry>
        </mxCell>
        <mxCell id="0QHYKSuhrzb7lmkxANA4-5" value="Firms" style="rounded=1;whiteSpace=wrap;html=1;fillColor=#fff2cc;strokeColor=#d6b656;" vertex="1" parent="1">
          <mxGeometry x="190" y="480" width="120" height="60" as="geometry" />
        </mxCell>
        <mxCell id="0QHYKSuhrzb7lmkxANA4-16" style="edgeStyle=orthogonalEdgeStyle;rounded=0;orthogonalLoop=1;jettySize=auto;html=1;startArrow=none;startFill=0;endArrow=classic;endFill=1;entryX=0.5;entryY=1;entryDx=0;entryDy=0;dashed=1;dashPattern=8 8;" edge="1" parent="1" source="0QHYKSuhrzb7lmkxANA4-6" target="0QHYKSuhrzb7lmkxANA4-3">
          <mxGeometry relative="1" as="geometry" />
        </mxCell>
        <mxCell id="0QHYKSuhrzb7lmkxANA4-17" value="LTV" style="edgeLabel;html=1;align=center;verticalAlign=middle;resizable=0;points=[];" vertex="1" connectable="0" parent="0QHYKSuhrzb7lmkxANA4-16">
          <mxGeometry x="-0.0031" y="1" relative="1" as="geometry">
            <mxPoint x="15" as="offset" />
          </mxGeometry>
        </mxCell>
        <mxCell id="0QHYKSuhrzb7lmkxANA4-19" style="edgeStyle=orthogonalEdgeStyle;rounded=0;orthogonalLoop=1;jettySize=auto;html=1;entryX=1;entryY=0.5;entryDx=0;entryDy=0;dashed=1;dashPattern=8 8;" edge="1" parent="1" source="0QHYKSuhrzb7lmkxANA4-6" target="0QHYKSuhrzb7lmkxANA4-2">
          <mxGeometry relative="1" as="geometry">
            <Array as="points">
              <mxPoint x="330" y="680" />
              <mxPoint x="680" y="680" />
              <mxPoint x="680" y="510" />
            </Array>
          </mxGeometry>
        </mxCell>
        <mxCell id="0QHYKSuhrzb7lmkxANA4-20" value="interbank loans" style="edgeLabel;html=1;align=center;verticalAlign=middle;resizable=0;points=[];" vertex="1" connectable="0" parent="0QHYKSuhrzb7lmkxANA4-19">
          <mxGeometry x="-0.3938" relative="1" as="geometry">
            <mxPoint as="offset" />
          </mxGeometry>
        </mxCell>
        <mxCell id="0QHYKSuhrzb7lmkxANA4-6" value="Foreign Economy" style="rounded=1;whiteSpace=wrap;html=1;fillColor=#fad7ac;strokeColor=#b46504;" vertex="1" parent="1">
          <mxGeometry x="270" y="580" width="120" height="60" as="geometry" />
        </mxCell>
        <mxCell id="0QHYKSuhrzb7lmkxANA4-13" style="edgeStyle=orthogonalEdgeStyle;rounded=0;orthogonalLoop=1;jettySize=auto;html=1;entryX=0.5;entryY=1;entryDx=0;entryDy=0;endArrow=classic;endFill=1;dashed=1;dashPattern=8 8;" edge="1" parent="1" source="0QHYKSuhrzb7lmkxANA4-11" target="0QHYKSuhrzb7lmkxANA4-3">
          <mxGeometry relative="1" as="geometry" />
        </mxCell>
        <mxCell id="0QHYKSuhrzb7lmkxANA4-15" value="LTV" style="edgeLabel;html=1;align=center;verticalAlign=middle;resizable=0;points=[];" vertex="1" connectable="0" parent="0QHYKSuhrzb7lmkxANA4-13">
          <mxGeometry x="0.4827" relative="1" as="geometry">
            <mxPoint as="offset" />
          </mxGeometry>
        </mxCell>
        <mxCell id="0QHYKSuhrzb7lmkxANA4-11" value="Households" style="rounded=1;whiteSpace=wrap;html=1;fillColor=#fad7ac;strokeColor=#b46504;" vertex="1" parent="1">
          <mxGeometry x="470" y="580" width="120" height="60" as="geometry" />
        </mxCell>
        <mxCell id="0QHYKSuhrzb7lmkxANA4-12" style="edgeStyle=orthogonalEdgeStyle;rounded=0;orthogonalLoop=1;jettySize=auto;html=1;entryX=0.423;entryY=1.02;entryDx=0;entryDy=0;entryPerimeter=0;endArrow=none;endFill=0;dashed=1;dashPattern=8 8;" edge="1" parent="1" source="0QHYKSuhrzb7lmkxANA4-11" target="0QHYKSuhrzb7lmkxANA4-2">
          <mxGeometry relative="1" as="geometry" />
        </mxCell>
        <mxCell id="0QHYKSuhrzb7lmkxANA4-14" value="Loans, Credit" style="edgeLabel;html=1;align=center;verticalAlign=middle;resizable=0;points=[];" vertex="1" connectable="0" parent="0QHYKSuhrzb7lmkxANA4-12">
          <mxGeometry x="0.5729" relative="1" as="geometry">
            <mxPoint x="19" as="offset" />
          </mxGeometry>
        </mxCell>
        <mxCell id="0QHYKSuhrzb7lmkxANA4-21" style="edgeStyle=orthogonalEdgeStyle;rounded=0;orthogonalLoop=1;jettySize=auto;html=1;entryX=0.327;entryY=1.007;entryDx=0;entryDy=0;entryPerimeter=0;exitX=0;exitY=0.5;exitDx=0;exitDy=0;dashed=1;dashPattern=8 8;" edge="1" parent="1" source="0QHYKSuhrzb7lmkxANA4-6" target="0QHYKSuhrzb7lmkxANA4-5">
          <mxGeometry relative="1" as="geometry" />
        </mxCell>
        <mxCell id="0QHYKSuhrzb7lmkxANA4-22" value="foreign demand" style="edgeLabel;html=1;align=center;verticalAlign=middle;resizable=0;points=[];" vertex="1" connectable="0" parent="0QHYKSuhrzb7lmkxANA4-21">
          <mxGeometry x="0.3517" y="-1" relative="1" as="geometry">
            <mxPoint as="offset" />
          </mxGeometry>
        </mxCell>
      </root>
    </mxGraphModel>
  </diagram>
</mxfile>
